<svg xmlns="http://www.w3.org/2000/svg" viewBox="0 0 240 240" role="img" aria-label="Avatar neon de apostas legalizadas">
  <defs>
    <radialGradient id="bg" cx="50%" cy="48%" r="62%">
      <stop offset="0" stop-color="#35124d"/>
      <stop offset="0.48" stop-color="#140819"/>
      <stop offset="1" stop-color="#030205"/>
    </radialGradient>
    <linearGradient id="pink" x1="24" x2="204" y1="24" y2="218">
      <stop stop-color="#ff61dc"/>
      <stop offset="0.55" stop-color="#b144ff"/>
      <stop offset="1" stop-color="#ff2bbb"/>
    </linearGradient>
    <linearGradient id="gold" x1="112" x2="170" y1="168" y2="218">
      <stop stop-color="#ffeaa1"/>
      <stop offset="1" stop-color="#f09b22"/>
    </linearGradient>
    <filter id="glow" x="-40%" y="-40%" width="180%" height="180%">
      <feGaussianBlur stdDeviation="4" result="blur"/>
      <feMerge><feMergeNode in="blur"/><feMergeNode in="SourceGraphic"/></feMerge>
    </filter>
  </defs>
  <circle cx="120" cy="120" r="116" fill="url(#bg)"/>
  <circle cx="120" cy="120" r="113" fill="none" stroke="#ff2bbb" stroke-width="2.5" opacity="0.85"/>
  <g filter="url(#glow)" opacity="0.9">
    <path d="M34 185c41-23 114-28 172-5" fill="none" stroke="#5d2bff" stroke-width="2" opacity="0.5"/>
    <path d="M40 52c50-24 119-22 158 9" fill="none" stroke="#ff2bbb" stroke-width="2" opacity="0.42"/>
  </g>
  <g transform="translate(76 31) rotate(8 46 86)">
    <rect x="10" y="0" width="78" height="142" rx="17" fill="#100816" stroke="url(#pink)" stroke-width="4"/>
    <rect x="19" y="17" width="60" height="103" rx="8" fill="#1d0a29" stroke="#6f2d94"/>
    <path d="M27 91l15-19 13 10 24-38" fill="none" stroke="#ff45c8" stroke-width="7" stroke-linecap="round" stroke-linejoin="round"/>
    <path d="M66 44h17v17" fill="none" stroke="#ff45c8" stroke-width="7" stroke-linecap="round" stroke-linejoin="round"/>
    <rect x="29" y="100" width="40" height="6" rx="3" fill="#7f31b7"/>
    <rect x="29" y="111" width="29" height="6" rx="3" fill="#6b289b"/>
    <circle cx="50" cy="132" r="4" fill="#ff2bbb"/>
  </g>
  <g transform="translate(26 112)">
    <circle cx="35" cy="35" r="33" fill="#f5f0fa" opacity="0.05" stroke="#ff6cdf" stroke-width="3"/>
    <path d="M15 20c13 9 26 9 40 0M16 50c13-9 26-9 39 0M35 4c-11 20-11 41 0 62M35 4c11 20 11 41 0 62" fill="none" stroke="#ff8be7" stroke-width="2.3" opacity="0.85"/>
  </g>
  <g transform="translate(160 104)">
    <circle cx="36" cy="36" r="34" fill="#c95125" opacity="0.95"/>
    <path d="M7 36h58M36 2v68M12 13c20 14 28 30 22 56M60 12c-24 16-32 35-22 58" fill="none" stroke="#2b1110" stroke-width="4" opacity="0.7"/>
    <circle cx="36" cy="36" r="34" fill="none" stroke="#ff6a36" stroke-width="2"/>
  </g>
  <g transform="translate(63 169)">
    <circle cx="31" cy="31" r="28" fill="url(#gold)"/>
    <circle cx="31" cy="31" r="19" fill="none" stroke="#7a3d00" stroke-width="3" opacity="0.45"/>
    <path d="M18 31l8 9 19-22" fill="none" stroke="#4c2600" stroke-width="6" stroke-linecap="round" stroke-linejoin="round"/>
  </g>
  <g transform="translate(142 171)" filter="url(#glow)">
    <ellipse cx="34" cy="14" rx="30" ry="12" fill="#211026" stroke="#ff42c4" stroke-width="3"/>
    <path d="M4 14v22c0 7 13 12 30 12s30-5 30-12V14" fill="#160a1d" stroke="#ff42c4" stroke-width="3"/>
    <path d="M10 28c12 7 36 7 48 0" fill="none" stroke="#9b3cff" stroke-width="3" opacity="0.8"/>
  </g>
</svg>
